PathFileType	4	(X/Y/Z)	C:\Users\dbl\Desktop\LZH\BX\Trimmed_bx_y_10_1801.trc
DataRate	CameraRate	NumFrames	NumMarkers	Units	OrigDataRate	OrigDataStartFrame	OrigNumFrames
50.00	50.00	       5	43	mm	50.00	90	       357
Frame#	Time	Top.Head			R.Acromium			L.Acromium			Sternum			R.ASIS			L.ASIS			V.Sacral			R.Thigh.Upper			R.Thigh.Front			R.Thigh.Rear			R.Knee.Lat			R.Knee.Med			R.Shank.Upper			R.Shank.Front			R.Shank.Rear			R.Ankle.Lat			R.Midfoot.Lat			R.Toe.Lat			R.Toe.Tip			R.Toe.Med			R.Ankle.Med			R.Midfoot.Sup			R.Heel			L.Thigh.Upper			L.Thigh.Front			L.Thigh.Rear			L.Knee.Lat			L.Knee.Med			L.Shank.Upper			L.Shank.Front			L.Shank.Rear			L.Ankle.Lat			L.Midfoot.Lat			L.Toe.Lat			L.Toe.Tip			L.Toe.Med			L.Ankle.Med			L.Midfoot.Sup			L.Heel			origin1 front left			origin2 front right			origin 3 back right			origin 4 back leftt			
		X1	Y1	Z1	X2	Y2	Z2	X3	Y3	Z3	X4	Y4	Z4	X5	Y5	Z5	X6	Y6	Z6	X7	Y7	Z7	X8	Y8	Z8	X9	Y9	Z9	X10	Y10	Z10	X11	Y11	Z11	X12	Y12	Z12	X13	Y13	Z13	X14	Y14	Z14	X15	Y15	Z15	X16	Y16	Z16	X17	Y17	Z17	X18	Y18	Z18	X19	Y19	Z19	X20	Y20	Z20	X21	Y21	Z21	X22	Y22	Z22	X23	Y23	Z23	X24	Y24	Z24	X25	Y25	Z25	X26	Y26	Z26	X27	Y27	Z27	X28	Y28	Z28	X29	Y29	Z29	X30	Y30	Z30	X31	Y31	Z31	X32	Y32	Z32	X33	Y33	Z33	X34	Y34	Z34	X35	Y35	Z35	X36	Y36	Z36	X37	Y37	Z37	X38	Y38	Z38	X39	Y39	Z39	X40	Y40	Z40	X41	Y41	Z41	X42	Y42	Z42	X43	Y43	Z43	

90	1.780	-687.21887	257.09409	1833.92798	-631.75104	62.78882	1529.20569	-621.38727	456.34183	1520.76086	-527.47168	265.21994	1398.38184	-542.15240	136.50185	1057.63965	-541.62994	398.87579	1079.38550	-729.13879	245.83310	1063.32727	-573.72150	89.88213	894.97717	-527.49103	150.70717	847.21631	-625.07983	86.29855	753.12769	-646.45123	122.57069	608.62866	-631.22949	232.98766	568.60175	-684.42163	123.97820	543.63342	-599.64154	173.62627	550.46655	-725.14746	129.73833	476.91736	-687.28333	147.39517	214.10266	-617.98669	77.29673	165.85594	-572.99194	49.35394	159.15672	-492.54022	90.51393	161.29347	-531.53375	141.84016	166.41345	-630.40411	217.02397	219.19016	-589.96106	187.77600	170.46977	-713.47980	217.38307	169.50177	-569.67395	433.70935	885.04333	-524.09515	371.46091	839.54376	-616.96277	438.01917	756.35510	-648.32788	411.77466	630.29059	-618.95874	307.60687	582.96783	-656.94604	407.14270	565.83704	-606.28094	364.49023	544.06995	-709.85223	413.67203	515.21350	-679.30066	415.17612	215.05023	-585.44952	468.62711	165.55125	-546.45294	478.76550	159.47751	-487.34247	429.04626	167.75375	-524.87213	388.08215	177.55182	-642.73981	326.74127	207.38690	-594.08813	347.67496	169.32237	-732.37543	343.78708	164.55258	-443.42520	449.19083	147.02197	-450.46707	75.26315	144.63612	-806.27374	82.65897	142.52110	-799.13159	458.07953	144.62390	
91	1.800	-686.69330	257.08008	1833.97461	-631.41577	62.65616	1529.24365	-621.11456	456.30154	1520.79749	-527.19489	264.98877	1398.32043	-542.13336	136.41203	1057.59277	-541.47260	398.81577	1079.41089	-729.07599	245.77673	1063.35474	-573.74615	89.82586	894.94659	-527.57874	150.69669	847.12280	-625.11237	86.30836	753.12585	-646.57831	122.40884	608.72473	-631.33325	233.06972	568.52856	-684.49707	123.95018	543.64899	-599.72437	173.56718	550.49396	-725.22766	129.71114	476.90259	-687.32861	147.40973	214.08649	-617.98114	77.29244	165.83517	-573.00647	49.37287	159.15506	-492.55219	90.51741	161.28668	-531.54901	141.82567	166.38695	-630.52454	216.91386	219.08482	-589.91010	187.81076	170.46855	-713.45520	217.40033	169.52974	-569.63770	433.66168	884.97754	-524.11517	371.37091	839.51367	-616.94019	437.96594	756.32001	-648.32324	411.70926	630.27594	-618.91577	307.57416	582.93085	-656.90771	407.04794	565.85193	-606.19873	364.43863	544.04572	-709.83594	413.63382	515.20459	-679.29596	415.17065	215.01500	-585.44226	468.61563	165.54678	-546.44122	478.83295	159.51154	-487.28998	429.05063	167.79070	-524.86108	388.06451	177.59251	-642.74548	326.72644	207.36043	-594.05890	347.83548	169.02382	-732.38483	343.81171	164.50175	-443.44434	449.18842	147.06123	-450.47125	75.28193	144.64723	-806.25647	82.64175	142.53110	-799.16779	458.05936	144.64897	
92	1.820	-686.11218	257.05771	1834.02478	-631.07391	62.58789	1529.28125	-620.78406	456.29166	1520.81555	-526.93152	264.82288	1398.28748	-542.08948	136.34546	1057.56042	-541.26697	398.71405	1079.41467	-729.04327	245.71622	1063.41016	-573.76044	89.73187	894.90033	-527.58020	150.62102	847.09009	-625.12726	86.32736	753.11938	-646.68256	122.24760	608.78827	-631.51001	233.20433	568.43201	-684.56232	123.89877	543.68152	-599.79266	173.49193	550.48035	-725.28705	129.69246	476.88715	-687.36011	147.41512	214.07240	-617.98499	77.29577	165.82042	-573.00275	49.37949	159.16814	-492.54623	90.54382	161.29066	-531.54987	141.81677	166.37434	-630.62225	216.83247	219.02495	-589.97778	187.78120	170.47720	-713.44641	217.40967	169.56270	-569.62671	433.63257	884.93268	-524.15546	371.28781	839.49158	-616.90594	437.90100	756.28009	-648.33557	411.64856	630.25824	-618.89832	307.54828	582.87823	-656.90100	406.97614	565.87970	-606.14331	364.37991	544.01697	-709.82983	413.60950	515.17651	-679.29755	415.17303	215.00137	-585.41986	468.59982	165.57643	-546.42328	478.87411	159.51575	-487.25378	429.06042	167.81546	-524.80316	388.05078	177.64058	-642.76050	326.72385	207.35063	-594.03448	348.06522	168.62526	-732.37714	343.81131	164.45760	-443.45697	449.18344	147.08560	-450.47513	75.31062	144.66499	-806.24323	82.62750	142.53668	-799.27356	457.95850	144.79370	
93	1.840	-685.50037	257.03381	1834.08691	-630.70453	62.57550	1529.31506	-620.38715	456.29001	1520.81042	-526.66071	264.73810	1398.26636	-542.03809	136.29001	1057.52979	-541.05261	398.56082	1079.36438	-729.04034	245.63237	1063.50183	-573.78027	89.59206	894.82965	-527.49872	150.47820	847.11102	-625.13208	86.34499	753.09570	-646.75494	122.11452	608.81421	-631.72662	233.34479	568.34064	-684.62933	123.83031	543.70941	-599.85760	173.41772	550.43091	-725.33173	129.67830	476.87927	-687.37653	147.41147	214.06210	-617.99835	77.30333	165.82523	-572.98212	49.37067	159.18687	-492.53381	90.57077	161.29822	-531.54602	141.82277	166.37633	-630.68024	216.78944	219.02649	-590.10309	187.72099	170.50697	-713.43890	217.41045	169.59842	-569.63385	433.62537	884.91919	-524.22021	371.20044	839.46552	-616.85315	437.81354	756.23438	-648.35870	411.61514	630.25360	-618.90686	307.49496	582.82489	-656.91882	406.91928	565.92017	-606.13049	364.33276	543.99066	-709.83734	413.59341	515.13751	-679.30371	415.18094	215.01559	-585.39777	468.60120	165.62097	-546.40796	478.87338	159.49142	-487.25342	429.06042	167.81044	-524.75293	388.05212	177.65013	-642.77155	326.73566	207.36606	-594.03540	348.26938	168.32504	-732.35828	343.80328	164.43228	-443.46570	449.16760	147.08516	-450.47928	75.32505	144.67203	-806.23474	82.61745	142.54329	-799.36499	457.84979	144.95920	
94	1.860	-684.86383	257.02646	1834.14587	-630.33185	62.57970	1529.33594	-619.92853	456.25781	1520.79199	-526.36060	264.72198	1398.23853	-541.98993	136.22591	1057.49683	-540.87646	398.38098	1079.25940	-729.04736	245.53308	1063.62146	-573.81757	89.43550	894.74396	-527.37946	150.30710	847.14990	-625.15454	86.33854	753.07324	-646.80115	122.03064	608.80774	-631.91992	233.42546	568.27991	-684.70105	123.75090	543.72156	-599.91974	173.36476	550.37732	-725.37396	129.65552	476.87979	-687.39905	147.40872	214.05499	-618.01416	77.31419	165.83876	-572.95697	49.35556	159.19522	-492.52783	90.58093	161.29910	-531.54443	141.83578	166.38237	-630.69452	216.79704	219.07756	-590.19092	187.68317	170.56081	-713.41919	217.40875	169.63228	-569.65704	433.61456	884.91815	-524.30145	371.12094	839.42542	-616.79553	437.71005	756.17603	-648.38196	411.58835	630.23358	-618.93091	307.38785	582.78394	-656.94061	406.86066	565.96136	-606.15057	364.30399	543.96985	-709.85486	413.58444	515.09766	-679.30182	415.17526	215.03088	-585.39032	468.62292	165.64459	-546.39685	478.83154	159.46075	-487.28033	429.04660	167.78322	-524.74750	388.05923	177.61948	-642.77020	326.75244	207.39418	-594.06000	348.33325	168.29384	-732.33655	343.81265	164.40524	-443.47467	449.13345	147.05904	-450.48074	75.32468	144.65366	-806.23102	82.61922	142.55528	-799.39307	457.80148	145.03720	
